<svg width="121" height="53" viewBox="0 0 121 53" fill="none" xmlns="http://www.w3.org/2000/svg">
<path d="M54.1061 38.1842C55.0497 39.1454 55.554 40.2013 55.7737 41.5193C54.7189 41.5193 53.6642 41.5193 52.5775 41.5193C52.3483 41.0607 52.119 40.6021 51.8827 40.1297C50.8459 39.3138 49.7214 39.0179 48.4087 39.157C47.5343 39.3286 46.6565 39.5899 46.0464 40.2686C44.8539 42.2047 44.5601 44.2905 44.9591 46.5034C45.303 47.8103 45.9332 48.9155 47.106 49.6138C48.1179 50.1385 49.3234 50.1401 50.4361 49.927C51.2665 49.6449 51.7687 49.1293 52.1867 48.3805C52.5181 47.6412 52.5181 47.6412 52.7165 46.244C51.4784 46.244 50.2402 46.244 48.9646 46.244C48.9187 45.7395 48.8728 45.2351 48.8256 44.7154C48.4383 44.2025 48.1527 44.0316 47.575 43.7427C50.2347 43.7427 52.8944 43.7427 55.6347 43.7427C55.6347 46.5858 55.6347 49.4289 55.6347 52.3582C54.8093 52.3582 53.9838 52.3582 53.1334 52.3582C53.0646 51.7392 53.0646 51.7392 52.9944 51.1076C52.8626 51.2337 52.7308 51.3598 52.5949 51.4897C51.1837 52.703 49.3904 52.7298 47.6244 52.6611C46.0122 52.5384 44.4452 51.7254 43.3491 50.5469C41.6129 48.4012 41.4341 45.8383 41.5996 43.1868C41.8539 41.1071 42.7916 39.2174 44.4483 37.9101C47.2854 35.9679 51.405 35.9931 54.1061 38.1842Z" fill="white"/>
<path d="M52.4415 16.6448C52.5632 16.7053 52.6848 16.7659 52.8101 16.8282C54.6584 17.8455 55.6453 19.367 56.2266 21.3586C56.8315 23.8033 56.6382 26.614 55.325 28.8006C54.1624 30.477 52.688 31.5928 50.6785 32.0076C49.1544 32.2125 47.4895 32.23 46.0493 31.6526C45.9332 31.6069 45.8172 31.5612 45.6976 31.5141C44.0256 30.7685 42.8043 29.4274 42.1193 27.7399C41.2616 25.2647 41.2769 22.3678 42.3517 19.9646C43.3463 18.0277 44.829 16.931 46.8831 16.2279C48.6184 15.8267 50.8398 15.8377 52.4415 16.6448ZM45.7714 19.9798C44.5912 21.6965 44.4825 23.8413 44.841 25.826C45.1591 27.1661 45.8679 28.3749 47.022 29.1513C48.0392 29.6735 49.2319 29.76 50.3311 29.4623C51.5976 28.9855 52.2813 28.2873 52.8584 27.0668C53.2445 26.0658 53.3402 25.1461 53.3274 24.0792C53.329 23.9447 53.3306 23.8101 53.3323 23.6715C53.3262 22.1693 52.9521 20.8225 51.9107 19.7095C50.8792 18.7428 49.9813 18.5111 48.5756 18.5517C47.3964 18.6545 46.5507 19.0794 45.7714 19.9798Z" fill="white"/>
<path d="M76.3398 40.6848C77.6238 40.6848 78.9078 40.6848 80.2308 40.6848C80.6997 42.0917 80.6997 42.0917 80.8353 42.7024C80.8658 42.8387 80.8964 42.9749 80.9279 43.1153C80.9592 43.2577 80.9905 43.4002 81.0227 43.547C81.0561 43.6964 81.0894 43.8458 81.1237 43.9997C81.2291 44.4723 81.3336 44.9452 81.438 45.4181C81.5097 45.7405 81.5814 46.0628 81.6532 46.3851C81.8282 47.1714 82.0025 47.9579 82.1762 48.7445C82.2221 48.7445 82.2679 48.7445 82.3152 48.7445C82.3591 48.5549 82.3591 48.5549 82.404 48.3615C83.3948 44.0975 83.3948 44.0975 83.9045 42.1352C83.9388 42.0024 83.973 41.8697 84.0083 41.7329C84.0398 41.6133 84.0713 41.4936 84.1037 41.3703C84.1309 41.2672 84.158 41.1641 84.1859 41.0579C84.2606 40.8237 84.2606 40.8237 84.3996 40.6848C84.6065 40.6727 84.8139 40.6699 85.0211 40.6712C85.146 40.6716 85.271 40.6721 85.3997 40.6725C85.5968 40.6743 85.5968 40.6743 85.7979 40.6761C85.9958 40.677 85.9958 40.677 86.1977 40.678C86.5247 40.6796 86.8518 40.6819 87.1788 40.6848C87.4338 41.7011 87.6885 42.7174 87.943 43.7339C88.0296 44.0796 88.1163 44.4253 88.203 44.771C88.3277 45.2681 88.4521 45.7651 88.5765 46.2622C88.6347 46.4939 88.6347 46.4939 88.6941 46.7303C88.7303 46.8749 88.7664 47.0195 88.8037 47.1685C88.8514 47.3588 88.8514 47.3588 88.9 47.5528C88.9833 47.9024 89.0561 48.2527 89.1243 48.6055C89.6085 46.9866 90.007 45.35 90.401 43.7072C90.4947 43.3166 90.5885 42.9262 90.6828 42.5358C90.741 42.2949 90.7988 42.054 90.8563 41.8129C91.0541 40.994 91.0541 40.994 91.2087 40.6848C92.1717 40.6848 93.1347 40.6848 94.1268 40.6848C93.9506 41.4778 93.7699 42.2467 93.5367 43.0213C93.4919 43.1721 93.4919 43.1721 93.4463 43.3258C93.3489 43.653 93.251 43.98 93.153 44.307C93.0849 44.5357 93.0167 44.7645 92.9486 44.9933C92.7703 45.5917 92.5916 46.1899 92.4127 46.7881C92.2298 47.4001 92.0474 48.0122 91.8649 48.6243C91.5077 49.8225 91.1499 51.0205 90.7918 52.2185C89.6912 52.2185 88.5906 52.2185 87.4567 52.2185C86.8606 49.6505 86.2644 47.0825 85.6502 44.4367C85.0082 47.0047 84.3662 49.5727 83.7048 52.2185C82.6042 52.2185 81.5036 52.2185 80.3697 52.2185C80.28 51.8973 80.1903 51.5761 80.0979 51.2451C79.8012 50.1836 79.5024 49.1227 79.2027 48.062C79.021 47.4189 78.8401 46.7757 78.6607 46.132C78.4875 45.5107 78.3125 44.89 78.1363 44.2696C78.0694 44.0329 78.0031 43.796 77.9375 43.5589C77.8455 43.2267 77.7512 42.8952 77.6563 42.5639C77.6297 42.4658 77.6031 42.3677 77.5757 42.2667C77.3448 41.4752 77.0122 41.133 76.3398 40.6848Z" fill="white"/>
<path d="M102.742 36.9336C103.98 36.9336 105.218 36.9336 106.494 36.9336C106.54 38.4927 106.586 40.0519 106.633 41.6583C106.954 41.3831 107.275 41.108 107.606 40.8245C108.642 40.2595 109.792 40.2853 110.941 40.4076C111.877 40.6958 112.681 41.2109 113.185 42.0686C113.59 42.8437 113.738 43.451 113.736 44.3315C113.736 44.5943 113.736 44.5943 113.736 44.8625C113.735 45.053 113.734 45.2436 113.734 45.4341C113.733 45.6296 113.733 45.8251 113.733 46.0205C113.733 46.5341 113.731 47.0476 113.73 47.5612C113.728 48.0856 113.728 48.61 113.727 49.1345C113.725 50.1628 113.723 51.191 113.72 52.2193C112.757 52.2193 111.794 52.2193 110.802 52.2193C110.8 51.9837 110.798 51.7481 110.796 51.5054C110.789 50.725 110.78 49.9446 110.769 49.1643C110.763 48.6914 110.758 48.2185 110.754 47.7455C110.749 47.2012 110.742 46.6569 110.734 46.1126C110.733 45.9437 110.732 45.7747 110.731 45.6006C110.715 44.6551 110.678 43.9464 110.02 43.2129C109.282 42.8439 108.539 42.8423 107.753 43.0652C107.361 43.2173 107.224 43.2724 106.989 43.6298C106.963 43.7587 106.938 43.8877 106.911 44.0206C106.842 44.2565 106.842 44.2565 106.771 44.4972C106.581 45.2565 106.584 46.0121 106.576 46.7911C106.573 46.9469 106.57 47.1026 106.567 47.263C106.559 47.7571 106.553 48.2512 106.546 48.7453C106.541 49.0816 106.536 49.418 106.53 49.7544C106.517 50.576 106.505 51.3976 106.494 52.2193C105.531 52.2193 104.568 52.2193 103.576 52.2193C103.575 51.7809 103.575 51.3426 103.574 50.8909C103.572 49.4433 103.566 47.9957 103.558 46.548C103.553 45.6703 103.549 44.7925 103.549 43.9147C103.548 43.0677 103.544 42.2208 103.538 41.3739C103.536 41.0506 103.536 40.7273 103.536 40.404C103.537 39.9515 103.533 39.4992 103.529 39.0467C103.53 38.9127 103.531 38.7788 103.532 38.6408C103.53 38.5171 103.528 38.3934 103.526 38.2659C103.525 38.1589 103.525 38.052 103.525 37.9418C103.431 37.509 103.431 37.509 102.742 36.9336Z" fill="white"/>
<path d="M78.5506 20.8249C79.9283 22.0825 80.2515 23.7496 80.3696 25.5246C80.3717 25.9556 80.3717 25.9556 80.2328 26.5115C77.6648 26.5115 75.0968 26.5115 72.451 26.5115C72.8212 28.0445 72.8212 28.0445 73.7103 29.2559C74.4539 29.5724 75.2745 29.7051 76.0466 29.4123C76.5865 29.0883 76.8954 28.7394 77.1756 28.179C78.1386 28.179 79.1016 28.179 80.0938 28.179C79.8865 29.4228 79.3107 30.3771 78.3221 31.171C76.8678 32.1203 75.072 32.2335 73.4031 31.9011C72.1463 31.555 71.1571 30.9165 70.4453 29.8167C69.3017 27.7229 69.3089 25.4247 69.9497 23.1764C70.3346 22.0273 71.2468 20.8953 72.3207 20.3277C72.5011 20.2532 72.6835 20.1833 72.8679 20.1193C73.0284 20.0619 73.1889 20.0046 73.3542 19.9455C75.1296 19.5561 77.0566 19.7567 78.5506 20.8249ZM73.111 22.9506C72.7212 23.5353 72.5899 24.0039 72.5899 24.705C74.1491 24.705 75.7082 24.705 77.3146 24.705C77.1784 23.479 77.0949 22.9841 76.2029 22.2037C74.9719 21.7933 73.9977 22.0146 73.111 22.9506Z" fill="white"/>
<path d="M73.4565 41.336C74.6705 42.3311 75.2738 43.5297 75.6104 45.0445C75.7622 47.2456 75.535 49.1415 74.16 50.9243C73.3582 51.8129 72.2163 52.411 71.0239 52.5268C69.1323 52.6183 67.5588 52.5073 66.0568 51.2413C64.8424 50.0459 64.3704 48.5842 64.3317 46.9095C64.3306 46.7756 64.3296 46.6416 64.3285 46.5036C64.3271 46.3761 64.3257 46.2485 64.3242 46.117C64.3445 44.5196 64.8399 43.0871 65.9282 41.8984C67.9324 40.0096 71.1775 39.7806 73.4565 41.336ZM68.0761 43.5393C67.1736 44.6858 67.1885 46.0942 67.3075 47.4937C67.5017 48.3236 67.7874 49.1225 68.4192 49.7171C69.0525 50.1026 69.64 50.3486 70.388 50.2219C71.2265 49.9944 71.7173 49.6223 72.1711 48.8833C72.8256 47.7033 72.7515 46.1008 72.4968 44.8073C72.2265 43.9556 71.8294 43.3761 71.0594 42.908C69.9474 42.5373 68.8929 42.6812 68.0761 43.5393Z" fill="white"/>
<path d="M66.8735 20.4222C67.7656 21.0951 68.2433 22.087 68.4216 23.176C68.4334 23.4657 68.4379 23.7557 68.4373 24.0457C68.4373 24.3044 68.4373 24.3044 68.4373 24.5683C68.4366 24.755 68.4359 24.9417 68.4351 25.1285C68.4349 25.3206 68.4347 25.5128 68.4345 25.705C68.434 26.2092 68.4326 26.7133 68.4311 27.2175C68.4297 27.7326 68.429 28.2478 68.4283 28.7629C68.4269 29.7724 68.4244 30.782 68.4216 31.7915C67.4586 31.7915 66.4956 31.7915 65.5034 31.7915C65.5021 31.5574 65.5008 31.3233 65.4994 31.0821C65.4945 30.305 65.487 29.528 65.4778 28.7509C65.4724 28.2802 65.4679 27.8095 65.4657 27.3387C65.4627 26.7964 65.4563 26.2543 65.4491 25.712C65.4489 25.5445 65.4488 25.377 65.4486 25.2044C65.4319 24.2368 65.3434 23.5759 64.8086 22.7591C64.1657 22.3431 63.6225 22.2741 62.8832 22.3938C62.3732 22.5433 62.1023 22.7833 61.7514 23.176C61.2935 24.129 61.2693 24.9911 61.2634 26.0377C61.261 26.2027 61.2585 26.3677 61.2559 26.5376C61.2484 27.0614 61.2437 27.5852 61.239 28.1091C61.2344 28.4655 61.2296 28.822 61.2246 29.1784C61.2129 30.0494 61.2036 30.9205 61.1956 31.7915C60.2326 31.7915 59.2696 31.7915 58.2774 31.7915C58.2754 31.4612 58.2734 31.1308 58.2713 30.7904C58.2643 29.7 58.255 28.6095 58.2447 27.5191C58.2384 26.8579 58.233 26.1966 58.2293 25.5353C58.2257 24.8974 58.2201 24.2595 58.213 23.6216C58.2107 23.378 58.2091 23.1344 58.2083 22.8908C58.2069 22.55 58.203 22.2094 58.1985 21.8687C58.1987 21.7675 58.1989 21.6664 58.1991 21.5622C58.1911 21.0246 58.1911 21.0246 57.9523 20.5566C57.7381 20.4082 57.5215 20.2634 57.3047 20.1188C58.5887 20.1188 59.8727 20.1188 61.1956 20.1188C61.2415 20.4398 61.2873 20.7608 61.3346 21.0915C61.3903 21.0362 61.446 20.9808 61.5034 20.9238C62.9455 19.5797 65.1921 19.352 66.8735 20.4222Z" fill="white"/>
<path d="M94.6836 40.6855C97.0223 40.6855 99.361 40.6855 101.771 40.6855C101.771 41.4193 101.771 42.153 101.771 42.9089C100.991 42.9089 100.211 42.9089 99.4083 42.9089C99.4247 43.8289 99.442 44.7489 99.46 45.6688C99.466 45.9818 99.4718 46.2948 99.4774 46.6077C99.4854 47.0575 99.4942 47.5073 99.5033 47.9571C99.5056 48.0971 99.5079 48.2371 99.5103 48.3813C99.5145 48.5774 99.5145 48.5774 99.5187 48.7774C99.5209 48.8922 99.523 49.007 99.5252 49.1253C99.5411 49.4843 99.5411 49.4843 99.6862 49.9959C100.282 50.0418 100.878 50.0876 101.493 50.1349C101.493 50.8227 101.493 51.5106 101.493 52.2193C100.692 52.6196 99.2196 52.5956 98.3487 52.4017C97.6581 52.1331 97.1894 51.8961 96.7941 51.2553C96.5504 50.6269 96.4727 50.0644 96.4743 49.3927C96.4743 49.2481 96.4743 49.1035 96.4743 48.9545C96.4751 48.8 96.4758 48.6455 96.4765 48.4864C96.4767 48.327 96.4769 48.1675 96.4771 48.0033C96.4779 47.495 96.4796 46.9868 96.4814 46.4785C96.4821 46.1335 96.4827 45.7886 96.4833 45.4436C96.4848 44.5987 96.4872 43.7538 96.4901 42.9089C95.8939 42.9089 95.2978 42.9089 94.6836 42.9089C94.6836 42.1752 94.6836 41.4415 94.6836 40.6855Z" fill="white"/>
<path d="M34.6531 1.36199C34.6531 16.77 34.6531 32.178 34.6531 48.0529C34.4239 48.0987 34.1946 48.1446 33.9583 48.1918C33.4246 47.1252 32.8912 46.0584 32.3596 44.9907C32.1404 44.5507 31.9211 44.1109 31.7017 43.671C31.5889 43.4446 31.4761 43.2181 31.3634 42.9915C31.1982 42.6594 31.0326 42.3275 30.867 41.9956C30.8165 41.8938 30.766 41.7921 30.7139 41.6873C30.5052 41.2267 30.5052 41.2267 30.2064 40.8269C27.2402 40.3474 27.2402 40.3474 24.4966 41.1345C23.8579 41.8901 23.4677 42.7488 23.1541 43.6823C22.9293 44.1233 22.7294 44.2255 22.2856 44.4399C21.8554 44.4916 21.8554 44.4916 21.3642 44.491C21.2735 44.4914 21.1828 44.4919 21.0893 44.4923C20.7864 44.4933 20.4836 44.4914 20.1807 44.4894C19.9632 44.4895 19.7456 44.4898 19.528 44.4903C18.9381 44.491 18.3481 44.4891 17.7582 44.4867C17.1412 44.4846 16.5242 44.4848 15.9073 44.4847C14.8718 44.4842 13.8364 44.4821 12.8009 44.479C11.4702 44.4749 10.1394 44.4735 8.80865 44.4729C7.66595 44.4723 6.52325 44.4706 5.38055 44.4687C5.01242 44.4681 4.64428 44.4677 4.27615 44.4673C3.69901 44.4666 3.12189 44.4652 2.54475 44.4632C2.33238 44.4626 2.12001 44.4622 1.90764 44.4621C1.61897 44.4618 1.33033 44.4607 1.04167 44.4594C0.879764 44.459 0.71786 44.4586 0.55105 44.4581C0.190829 44.4399 0.19083 44.4399 0.0518686 44.3009C0.0380117 44.0349 0.0336917 43.7683 0.0334129 43.5019C0.0332337 43.34 0.0330546 43.178 0.0328701 43.0112C0.0334074 42.8407 0.0339448 42.6701 0.0344985 42.4944C0.0339611 42.3239 0.0334237 42.1534 0.0328701 41.9777C0.0330492 41.8157 0.0332283 41.6538 0.0334129 41.487C0.0335696 41.3372 0.0337264 41.1875 0.0338878 41.0332C0.0518686 40.6879 0.0518686 40.6879 0.19083 40.549C0.507416 40.5355 0.824429 40.532 1.1413 40.5323C1.29214 40.5321 1.29214 40.5321 1.44602 40.5319C1.7855 40.5317 2.12497 40.5324 2.46445 40.5332C2.70679 40.5332 2.94914 40.5332 3.19148 40.5331C3.85152 40.5331 4.51155 40.5339 5.17159 40.5349C5.86057 40.5358 6.54956 40.5358 7.23855 40.536C8.5442 40.5364 9.84985 40.5376 11.1555 40.539C12.6415 40.5405 14.1276 40.5413 15.6136 40.542C18.6714 40.5434 21.7291 40.5459 24.7869 40.549C24.7432 40.4577 24.6995 40.3665 24.6544 40.2724C24.4541 39.8541 24.2538 39.4357 24.0535 39.0173C23.9848 38.8738 23.916 38.7302 23.8452 38.5824C23.4805 37.8203 23.1186 37.0573 22.7638 36.2906C22.696 36.1454 22.6282 36.0002 22.5584 35.8506C22.4236 35.5617 22.2902 35.2722 22.1578 34.9821C22.0912 34.8407 22.0247 34.6993 21.9561 34.5536C21.8989 34.4298 21.8417 34.3061 21.7827 34.1786C21.5584 33.8282 21.4278 33.7298 21.035 33.6009C20.6657 33.557 20.6657 33.557 20.2658 33.558C20.119 33.5546 19.9722 33.5511 19.821 33.5475C19.5123 33.5426 19.2036 33.5382 18.8949 33.5344C18.675 33.5289 18.675 33.5289 18.4506 33.5233C18.3166 33.5214 18.1826 33.5196 18.0446 33.5176C17.6332 33.4512 17.5482 33.3563 17.283 33.0451C17.1133 32.6744 16.9585 32.3078 16.8108 31.9285C16.7447 31.7632 16.7447 31.7632 16.6774 31.5945C16.5366 31.2417 16.3973 30.8885 16.2582 30.5351C15.5244 28.4511 15.5244 28.4511 14.5038 26.5139C14.121 26.3863 13.898 26.3578 13.504 26.3582C13.3853 26.3581 13.2666 26.3579 13.1444 26.3577C13.0146 26.3582 12.8849 26.3587 12.7512 26.3592C12.6143 26.3592 12.4773 26.3591 12.3362 26.3591C11.8828 26.3592 11.4294 26.3603 10.976 26.3614C10.662 26.3616 10.3479 26.3618 10.0338 26.362C9.20661 26.3625 8.37939 26.3639 7.55218 26.3654C6.7083 26.3668 5.86442 26.3675 5.02054 26.3682C3.36431 26.3697 1.70809 26.372 0.0518686 26.375C0.0421914 24.9085 0.0347921 23.442 0.0302684 21.9755C0.0280967 21.2944 0.0251534 20.6134 0.0204192 19.9324C0.0158756 19.2747 0.0133931 18.617 0.0123151 17.9592C0.0115474 17.7088 0.0100497 17.4584 0.00779238 17.208C0.00474752 16.8561 0.00434937 16.5043 0.00454184 16.1524C0.00304304 16.0498 0.00154423 15.9473 0 15.8416C0.00411038 15.143 0.088664 14.4684 0.468751 13.8685C1.02588 13.3475 1.6017 12.9843 2.28626 12.6479C2.38201 12.5997 2.47776 12.5516 2.57641 12.502C2.89495 12.3421 3.21426 12.1838 3.53359 12.0255C3.76309 11.9107 3.99254 11.7958 4.22194 11.6808C4.84328 11.3698 5.46529 11.0601 6.08745 10.7507C6.7386 10.4266 7.38914 10.1013 8.03976 9.77616C9.13173 9.23062 10.2241 8.68591 11.3168 8.14176C12.7201 7.44289 14.1228 6.74274 15.5253 6.04216C16.7308 5.44 17.9365 4.83834 19.1423 4.23681C19.4012 4.10763 19.6601 3.97843 19.919 3.84922C20.6565 3.48114 21.3942 3.11332 22.1321 2.74595C22.3558 2.63451 22.5795 2.52298 22.8031 2.41135C23.1077 2.25935 23.4124 2.10769 23.7171 1.95613C23.8062 1.91159 23.8953 1.86705 23.987 1.82116C27.1748 0.239356 31.0945 1.36199 34.6531 1.36199Z" fill="#58B947"/>
<path d="M0.0529256 49.1644C4.44085 49.1613 8.82878 49.1588 13.2167 49.1573C13.7342 49.1572 14.2517 49.157 14.7692 49.1568C14.8722 49.1568 14.9752 49.1567 15.0814 49.1567C16.7518 49.1561 18.4222 49.155 20.0926 49.1537C21.8053 49.1524 23.518 49.1516 25.2307 49.1513C26.2883 49.1512 27.346 49.1506 28.4037 49.1494C29.2134 49.1486 30.023 49.1485 30.8327 49.1487C31.1658 49.1487 31.499 49.1484 31.8321 49.1479C32.2848 49.1472 32.7375 49.1473 33.1902 49.1477C33.3239 49.1473 33.4576 49.1469 33.5953 49.1465C34.4994 49.1486 34.4994 49.1486 34.6542 49.3034C34.6891 49.7859 34.6799 50.2702 34.6803 50.7538C34.682 50.89 34.6837 51.0262 34.6854 51.1666C34.6857 51.2967 34.6859 51.4269 34.6862 51.561C34.6868 51.6809 34.6874 51.8008 34.688 51.9243C34.6542 52.2216 34.6542 52.2216 34.3763 52.4995C34.1227 52.5342 34.1227 52.5342 33.8086 52.5341C33.6293 52.535 33.6293 52.535 33.4463 52.536C33.2482 52.5349 33.2482 52.5349 33.046 52.5338C32.9063 52.5342 32.7665 52.5345 32.6226 52.5349C32.1513 52.5356 31.6801 52.5344 31.2089 52.5332C30.8723 52.5334 30.5357 52.5337 30.1991 52.534C29.378 52.5346 28.5569 52.534 27.7357 52.5327C26.7804 52.5312 25.8251 52.5312 24.8697 52.5313C23.1657 52.5314 21.4618 52.5301 19.7578 52.5281C18.1026 52.5261 16.4474 52.5251 14.7922 52.5252C14.6903 52.5252 14.5883 52.5252 14.4833 52.5253C14.3306 52.5253 14.3306 52.5253 14.1749 52.5253C12.2929 52.5254 10.4109 52.5245 8.52891 52.5233C7.86224 52.5229 7.19557 52.5227 6.52889 52.5227C5.63252 52.5226 4.73616 52.5217 3.83979 52.5203C3.50977 52.5199 3.17976 52.5197 2.84974 52.5198C2.40132 52.5199 1.95292 52.5191 1.5045 52.5181C1.37208 52.5183 1.23967 52.5185 1.10324 52.5187C0.207753 52.5154 0.207753 52.5154 0.0529256 52.3605C0.0408168 52.1232 0.0380568 51.8854 0.0393552 51.6478C0.039803 51.5041 0.0402509 51.3603 0.0407123 51.2122C0.0418766 51.0609 0.0430409 50.9096 0.0442406 50.7538C0.0448675 50.602 0.0454945 50.4502 0.0461404 50.2938C0.0477843 49.9173 0.0500748 49.5409 0.0529256 49.1644Z" fill="#58B947"/>
<path d="M0.592605 40.5322C0.86602 40.5324 0.86602 40.5324 1.14496 40.5326C1.29665 40.5324 1.29665 40.5324 1.4514 40.5323C1.7928 40.532 2.13419 40.5328 2.47558 40.5336C2.7193 40.5336 2.96301 40.5336 3.20672 40.5335C3.87049 40.5335 4.53426 40.5343 5.19802 40.5352C5.89091 40.5361 6.58379 40.5362 7.27667 40.5364C8.58971 40.5368 9.90274 40.5379 11.2158 40.5393C12.7102 40.5409 14.2046 40.5416 15.6991 40.5423C18.7741 40.5438 21.8492 40.5462 24.9243 40.5493C24.6313 41.297 24.2478 41.9614 23.8386 42.6511C23.7299 42.84 23.7299 42.84 23.6191 43.0327C23.5114 43.2141 23.5114 43.2141 23.4017 43.3991C23.3372 43.509 23.2727 43.6188 23.2063 43.7319C22.9277 44.0888 22.6904 44.2391 22.284 44.4402C21.8538 44.4919 21.8538 44.4919 21.3626 44.4913C21.2719 44.4918 21.1811 44.4922 21.0877 44.4927C20.7848 44.4937 20.482 44.4917 20.1791 44.4898C19.9615 44.4899 19.744 44.4902 19.5264 44.4906C18.9364 44.4914 18.3465 44.4895 17.7565 44.4871C17.1396 44.485 16.5226 44.4852 15.9057 44.4851C14.8702 44.4845 13.8348 44.4825 12.7993 44.4793C11.4685 44.4753 10.1378 44.4739 8.80703 44.4733C7.66433 44.4727 6.52163 44.471 5.37893 44.469C5.0108 44.4685 4.64266 44.4681 4.27453 44.4677C3.69739 44.467 3.12027 44.4656 2.54313 44.4636C2.33076 44.463 2.11839 44.4626 1.90602 44.4624C1.61735 44.4622 1.32871 44.4611 1.04005 44.4598C0.878144 44.4593 0.71624 44.4589 0.54943 44.4585C0.189209 44.4402 0.189209 44.4402 0.0502486 44.3013C0.0363917 44.0352 0.0320717 43.7687 0.0317928 43.5023C0.0316137 43.3403 0.0314346 43.1784 0.03125 43.0116C0.0317874 42.841 0.0323248 42.6705 0.0328784 42.4948C0.0323411 42.3243 0.0318037 42.1537 0.03125 41.978C0.0314291 41.8161 0.0316083 41.6542 0.0317928 41.4873C0.0319496 41.3376 0.0321063 41.1878 0.0322678 41.0335C0.0582458 40.5348 0.0870946 40.5537 0.592605 40.5322Z" fill="white"/>
<path d="M0.473244 33.4445C0.599159 33.4447 0.725075 33.4448 0.854806 33.4449C0.998814 33.4447 1.14282 33.4445 1.29119 33.4443C1.53018 33.4451 1.53018 33.4451 1.774 33.4458C1.94073 33.4458 2.10746 33.4458 2.27924 33.4458C2.73773 33.4459 3.19622 33.4466 3.65471 33.4475C4.13339 33.4484 4.61206 33.4485 5.09074 33.4487C5.99775 33.4491 6.90477 33.4502 7.81178 33.4516C8.84414 33.4532 9.87651 33.4539 10.9089 33.4546C13.033 33.4561 15.1572 33.4585 17.2814 33.4616C17.4362 33.9273 17.4359 33.9863 17.2005 34.4572C17.099 34.6186 16.9956 34.7789 16.8906 34.9381C16.8393 35.0194 16.7879 35.1007 16.7351 35.1845C16.5204 35.5205 16.3134 35.8192 16.0308 36.1019C15.7495 36.1365 15.7495 36.1365 15.3969 36.1362C15.2634 36.1368 15.1299 36.1374 14.9924 36.138C14.8455 36.1372 14.6986 36.1364 14.5472 36.1356C14.3929 36.1359 14.2386 36.1362 14.0795 36.1364C13.5674 36.137 13.0553 36.1355 12.5432 36.1339C12.1887 36.1337 11.8343 36.1337 11.4798 36.1337C10.7363 36.1335 9.99274 36.1324 9.24919 36.1305C8.38847 36.1283 7.52777 36.1276 6.66706 36.1277C5.84021 36.1278 5.01337 36.127 4.18653 36.1259C3.83408 36.1254 3.48164 36.1252 3.1292 36.1251C2.63772 36.1248 2.14625 36.1236 1.65478 36.1221C1.50759 36.1221 1.36039 36.1222 1.20874 36.1223C1.07565 36.1217 0.942572 36.1211 0.805457 36.1205C0.689125 36.1202 0.572793 36.12 0.452935 36.1198C0.18921 36.1019 0.18921 36.1019 0.0502486 35.9629C0.0363706 35.5678 0.0309637 35.1768 0.0328784 34.7818C0.0323411 34.6709 0.0318037 34.56 0.03125 34.4458C0.0329049 33.471 0.0329049 33.471 0.473244 33.4445Z" fill="white"/>
<path d="M56.6094 40.6848C57.8475 40.6848 59.0857 40.6848 60.3613 40.6848C60.4072 41.1892 60.453 41.6936 60.5003 42.2134C60.592 42.0872 60.6837 41.9611 60.7782 41.8312C61.3108 41.1894 62.0504 40.8426 62.8626 40.6848C63.0825 40.6757 63.3027 40.6729 63.5227 40.6761C63.815 40.6804 63.815 40.6804 64.1133 40.6848C64.1133 41.4185 64.1133 42.1522 64.1133 42.9082C63.8324 42.9655 63.5515 43.0228 63.2621 43.0819C62.3079 43.3065 61.674 43.5579 61.0909 44.3672C60.2511 45.8805 60.442 47.8621 60.4134 49.5435C60.4081 49.8037 60.4027 50.0639 60.3971 50.3241C60.3837 50.9556 60.3726 51.587 60.3613 52.2185C59.3983 52.2185 58.4353 52.2185 57.4431 52.2185C57.4426 51.8889 57.442 51.5593 57.4414 51.2196C57.439 50.1308 57.4328 49.0421 57.4248 47.9533C57.42 47.2931 57.4165 46.633 57.416 45.9728C57.4154 45.3358 57.4114 44.6988 57.4051 44.0618C57.4033 43.8187 57.4027 43.5756 57.4034 43.3325C57.4041 42.992 57.4004 42.6519 57.3958 42.3115C57.397 42.2108 57.3982 42.1102 57.3994 42.0065C57.3996 41.6886 57.3996 41.6886 57.3042 41.2406C57.0749 41.0572 56.8456 40.8738 56.6094 40.6848Z" fill="white"/>
<path d="M119.976 47.077C120.633 47.747 120.905 48.3227 121.001 49.2483C120.985 50.1076 120.611 50.8693 120.024 51.4885C119.333 52.0051 118.613 52.0439 117.77 52.0068C116.888 51.8724 116.336 51.4549 115.807 50.7508C115.4 50.0254 115.428 49.2739 115.529 48.4666C115.769 47.7029 116.272 47.2447 116.919 46.7991C117.99 46.3082 119.005 46.4425 119.976 47.077Z" fill="#58B947"/>
<path d="M96.4922 36.9336C97.4552 36.9336 98.4182 36.9336 99.4104 36.9336C99.4104 38.6959 99.4104 38.6959 98.6564 39.5098C97.9329 40.1492 97.453 40.2687 96.4922 40.2687C96.4922 39.1681 96.4922 38.0675 96.4922 36.9336Z" fill="white"/>
</svg>
